<?xml version="1.0" encoding="utf-8"?>
<!-- Generator: Adobe Illustrator 14.0.0, SVG Export Plug-In  -->
<!DOCTYPE svg PUBLIC "-//W3C//DTD SVG 1.1//EN" "http://www.w3.org/Graphics/SVG/1.1/DTD/svg11.dtd" [
	<!ENTITY ns_flows "http://ns.adobe.com/Flows/1.0/">
]>
<svg version="1.1"
	 xmlns="http://www.w3.org/2000/svg" xmlns:xlink="http://www.w3.org/1999/xlink" xmlns:a="http://ns.adobe.com/AdobeSVGViewerExtensions/3.0/"
	 x="0px" y="0px" width="291px" height="407px" viewBox="1.219 -5.125 291 407" enable-background="new 1.219 -5.125 291 407"
	 xml:space="preserve">
<defs>
</defs>
<path id="_96875136_2_" fill="#FFD42A" stroke="#000000" stroke-width="0.5" d="M129.455,36.824v3.416"/>
<path id="path193_2_" fill="#FFD42A" stroke="#000000" stroke-width="0.5" d="M120.889,46.527
	c3.882-13.223,14.978-20.004,25.998-20.018c11.02,0.014,22.115,6.794,25.998,20.018c0.396,5.896,0.755,11.185,1.151,17.081
	c1.338,3.381,0.054,6.373-1.845,8.093c1.568,3.001-0.792,5.123-1.881,6.352c0.251,1.885-0.538,3.773-2.712,4.994
	c-0.251,2.74-1.311,4.146-3.179,5.223c-5.511-1.125-11.486-1.717-17.532-1.777c-6.047,0.06-12.022,0.652-17.533,1.777
	c-1.868-1.076-2.928-2.484-3.178-5.223c-2.175-1.221-2.963-3.109-2.712-4.994c-1.09-1.229-3.449-3.351-1.881-6.352
	c-1.899-1.72-3.183-4.712-1.845-8.093C120.133,57.712,120.492,52.423,120.889,46.527L120.889,46.527z"/>
<path id="path199_2_" fill="none" stroke="#000000" stroke-width="0.5" d="M125.048,46.463c3.144-1.405,4.533-5.04,0.458-8.916
	c6.539,3.758,9.67,0.204,7.179-6.555c4.453,5.578,9.102,4.282,8.904-3.164c0.887,3.063,2.205,3.956,4.987,4.905
	c3.153-1.035,4.105-1.688,5.049-4.886c-0.211,7.49,4.628,8.607,9.023,3.197c-2.569,6.845,0.793,10.228,7.269,6.583
	c-4.205,3.93-3.368,6.858,0.809,8.918"/>
<path id="polygon205_4_" d="M143.546,63.252v0.17l-0.526,0.294l-0.619,0.355l-0.634,0.341l-0.635,0.326l-0.65,0.34l-0.648,0.325
	l-0.65,0.325l-0.665,0.31l-0.682,0.31l-0.681,0.31l-0.681,0.294l-0.682,0.294l-0.696,0.279l-0.696,0.278l-0.711,0.278l-0.713,0.264
	l-0.695,0.247l-0.727,0.248l-0.711,0.248l-0.713,0.231l-0.726,0.217l-0.711,0.217l-0.727,0.217l-0.726,0.201l-0.711,0.186
	l-0.727,0.17l-0.727,0.171l-0.711,0.17l-0.727,0.14l-0.712,0.14l-0.711,0.14l-0.711,0.107l0.077,0.542l0.726-0.124l0.711-0.124
	l0.727-0.14l0.726-0.155l0.727-0.154l0.727-0.186l0.727-0.17l0.726-0.186l0.726-0.201l0.743-0.217l0.712-0.217l0.726-0.231
	l0.727-0.232l0.727-0.232l0.711-0.263l0.712-0.248l0.711-0.263l0.711-0.278l0.712-0.278l0.695-0.294l0.696-0.294l0.696-0.294
	l0.682-0.31l0.682-0.31l0.665-0.325l0.666-0.325l0.649-0.325l0.65-0.34l0.648-0.325l0.635-0.355l0.619-0.341l0.248-0.139v0.65
	l-0.016,0.727l-0.017,0.727l-0.016,0.727l-0.016,0.742l-0.031,0.727l-0.031,0.727v0.171l-0.387,0.231l-0.572,0.34l-0.588,0.341
	l-0.588,0.34l-0.604,0.341l-0.587,0.341l-0.619,0.324l-0.603,0.341l-0.619,0.325l-0.619,0.324l-0.634,0.325l-0.634,0.31l-0.635,0.31
	l-0.635,0.31l-0.634,0.293l-0.649,0.294l-0.65,0.278l-0.649,0.278l-0.649,0.278l-0.649,0.264l-0.649,0.248l-0.65,0.247l-0.665,0.232
	l-0.65,0.231l-0.665,0.217l-0.649,0.201l-0.666,0.187l-0.649,0.186l-0.65,0.17l-0.648,0.154l-0.65,0.14l-0.649,0.14l0.093,0.525
	l0.665-0.124l0.649-0.154l0.666-0.155l0.665-0.17l0.665-0.187l0.665-0.201l0.666-0.201l0.665-0.217l0.665-0.231l0.665-0.231
	l0.65-0.248l0.665-0.248l0.65-0.278l0.665-0.264l0.649-0.278l0.65-0.294l0.65-0.294l0.648-0.294l0.65-0.31l0.635-0.31l0.634-0.325
	l0.634-0.324l0.619-0.325l0.619-0.325l0.619-0.341l0.619-0.324l0.604-0.341l0.587-0.34l0.604-0.341l0.588-0.34l0.572-0.355
	l0.077-0.047l-0.046,0.65l-0.031,0.742l-0.046,0.727l-0.046,0.743l-0.063,0.743l-0.046,0.727l-0.063,0.742l-0.077,0.666
	l-0.325,0.186l-0.479,0.294l-0.479,0.278l-0.48,0.278l-0.479,0.278l-0.495,0.294l-0.495,0.278l-0.495,0.278l-0.479,0.294
	l-0.51,0.278l-0.495,0.278l-0.511,0.263l-0.51,0.278l-0.511,0.263l-0.512,0.263l-0.525,0.264l-0.526,0.247l-0.525,0.232
	l-0.542,0.248l-0.542,0.217l-0.542,0.217l-0.558,0.217l-0.557,0.201l-0.557,0.186l-0.572,0.17l-0.572,0.17l-0.588,0.155
	l-0.589,0.139l-0.588,0.124l-0.602,0.108l-0.604,0.108l-0.619,0.077l0.062,0.542l0.634-0.093l0.619-0.093l0.619-0.108l0.603-0.14
	l0.604-0.14l0.588-0.154l0.588-0.17l0.587-0.187l0.573-0.187l0.558-0.2l0.572-0.217l0.542-0.216l0.558-0.232l0.542-0.248
	l0.542-0.231l0.526-0.263l0.525-0.248l0.526-0.278l0.525-0.264l0.511-0.278l0.511-0.264l0.495-0.294l0.511-0.278l0.495-0.278
	l0.495-0.294l0.495-0.278l0.479-0.279l0.495-0.294l0.479-0.278l0.479-0.278l0.479-0.278l-0.016,0.139l-0.077,0.727l-0.077,0.742
	l-0.078,0.727l-0.093,0.727l-0.093,0.727l-0.093,0.743l-0.108,0.727l-0.108,0.727l-0.108,0.711l-0.124,0.727l-0.124,0.727
	l-0.124,0.711l-0.139,0.727l-0.139,0.712l0.542,0.107l0.139-0.727l0.124-0.726l0.141-0.712l0.124-0.727l0.107-0.727l0.124-0.727
	l0.108-0.727l0.093-0.742l0.108-0.727l0.093-0.743l0.077-0.727l0.093-0.742l0.078-0.727l0.077-0.743l0.062-0.743l0.077-0.727
	l0.063-0.742l0.046-0.743l0.063-0.743l0.046-0.727l0.046-0.742l0.031-0.743l0.046-0.743l0.031-0.726l0.03-0.743l0.031-0.727
	l0.017-0.743l0.016-0.727l0.015-0.727l0.016-0.742v-0.728l0.017-0.727h-0.54V63.252z"/>
<path id="polygon205_1_" d="M150.227,63.252v0.17l0.525,0.294l0.619,0.355l0.635,0.341l0.635,0.326l0.649,0.34l0.649,0.325
	l0.648,0.325l0.666,0.31l0.682,0.31l0.681,0.31l0.681,0.294l0.682,0.294l0.695,0.279l0.696,0.278l0.712,0.278l0.712,0.264
	l0.696,0.247l0.726,0.248l0.713,0.248l0.712,0.231l0.726,0.217l0.713,0.217l0.726,0.217l0.728,0.201l0.711,0.186l0.728,0.17
	l0.727,0.171l0.712,0.17l0.727,0.14l0.712,0.14l0.712,0.14l0.711,0.107l-0.077,0.542l-0.727-0.124l-0.712-0.124l-0.727-0.14
	l-0.726-0.155l-0.727-0.154l-0.728-0.186l-0.727-0.17l-0.727-0.186l-0.727-0.201l-0.743-0.217l-0.711-0.217l-0.727-0.231
	l-0.727-0.232l-0.728-0.232l-0.711-0.263l-0.712-0.248l-0.712-0.263l-0.712-0.278l-0.712-0.278l-0.696-0.294l-0.696-0.294
	l-0.694-0.294l-0.682-0.31l-0.682-0.31l-0.665-0.325l-0.666-0.325l-0.649-0.325l-0.649-0.34l-0.649-0.325l-0.635-0.355l-0.619-0.341
	l-0.248-0.139v0.65l0.016,0.727l0.017,0.727l0.016,0.727l0.016,0.742l0.031,0.727l0.031,0.727v0.171l0.387,0.231l0.572,0.34
	l0.588,0.341l0.588,0.34l0.604,0.341l0.587,0.341l0.619,0.324l0.604,0.341l0.618,0.325l0.619,0.324l0.634,0.325l0.635,0.31
	l0.635,0.31l0.635,0.31l0.635,0.293l0.649,0.294l0.649,0.278l0.649,0.278l0.648,0.278l0.65,0.264l0.649,0.248l0.649,0.247
	l0.665,0.232l0.65,0.231l0.665,0.217l0.649,0.201l0.665,0.187l0.649,0.186l0.649,0.17l0.649,0.154l0.648,0.14l0.649,0.14
	l-0.093,0.525l-0.665-0.124l-0.649-0.154l-0.665-0.155l-0.665-0.17l-0.665-0.187l-0.665-0.201l-0.666-0.201l-0.665-0.217
	l-0.665-0.231l-0.665-0.231l-0.649-0.248l-0.665-0.248l-0.65-0.278l-0.665-0.264l-0.649-0.278l-0.649-0.294l-0.65-0.294
	l-0.649-0.294l-0.648-0.31l-0.636-0.31l-0.634-0.325l-0.634-0.324l-0.619-0.325l-0.619-0.325l-0.618-0.341l-0.619-0.324
	l-0.604-0.341l-0.588-0.34l-0.604-0.341l-0.587-0.34l-0.573-0.355l-0.077-0.047l0.046,0.65l0.031,0.742l0.046,0.727l0.046,0.743
	l0.063,0.743l0.046,0.727l0.063,0.742l0.077,0.666l0.324,0.186l0.479,0.294l0.479,0.278l0.479,0.278l0.479,0.278l0.495,0.294
	l0.495,0.278l0.495,0.278l0.479,0.294l0.51,0.278l0.495,0.278l0.511,0.263l0.511,0.278l0.511,0.263l0.511,0.263l0.526,0.264
	l0.524,0.247l0.526,0.232l0.541,0.248l0.542,0.217l0.542,0.217l0.558,0.217l0.557,0.201l0.558,0.186l0.572,0.17l0.572,0.17
	l0.588,0.155l0.588,0.139l0.589,0.124l0.602,0.108l0.604,0.108l0.619,0.077l-0.063,0.542l-0.635-0.093l-0.619-0.093l-0.618-0.108
	l-0.603-0.14l-0.604-0.14l-0.588-0.154l-0.588-0.17l-0.589-0.187l-0.571-0.187l-0.558-0.2l-0.572-0.217l-0.541-0.216l-0.559-0.232
	l-0.541-0.248l-0.541-0.231l-0.526-0.263l-0.525-0.248l-0.525-0.278l-0.526-0.264l-0.511-0.278l-0.511-0.264l-0.495-0.294
	l-0.511-0.278l-0.494-0.278l-0.495-0.294l-0.495-0.278l-0.48-0.279l-0.494-0.294l-0.479-0.278l-0.479-0.278l-0.478-0.278
	l0.016,0.139l0.077,0.727l0.078,0.742l0.077,0.727l0.093,0.727l0.093,0.727l0.093,0.743l0.108,0.727l0.108,0.727l0.107,0.711
	l0.124,0.727l0.123,0.727l0.124,0.711l0.14,0.727l0.14,0.712l-0.541,0.107l-0.14-0.727l-0.123-0.726l-0.141-0.712l-0.124-0.727
	l-0.107-0.727l-0.124-0.727l-0.108-0.727l-0.093-0.742l-0.108-0.727l-0.093-0.743l-0.078-0.727l-0.093-0.742l-0.077-0.727
	l-0.078-0.743l-0.063-0.743l-0.077-0.727l-0.063-0.742l-0.047-0.743l-0.062-0.743l-0.046-0.727l-0.046-0.742l-0.031-0.743
	l-0.046-0.743l-0.031-0.726l-0.031-0.743l-0.03-0.727l-0.017-0.743l-0.015-0.727l-0.016-0.727l-0.016-0.742v-0.728l-0.016-0.727
	h0.54V63.252z"/>
<path id="rect273_2_" fill="#FFD42A" stroke="#000000" stroke-width="0.5" d="M171.785,48.471h3.427v13.031h-3.427V48.471z
	 M158.48,48.471h3.425v13.031h-3.425V48.471z M145.173,48.471h3.426v13.031h-3.426V48.471z M131.867,48.471h3.426v13.031h-3.426
	V48.471z M118.561,48.471h3.425v13.031h-3.425V48.471z"/>
<path id="polygon291_2_" fill="#FFD42A" stroke="#000000" stroke-width="0.5" d="M117.306,63.535L117.306,63.535v-2.538h59.162
	v2.538H117.306z M117.306,56.256L117.306,56.256v-2.54h59.162v2.54H117.306z M117.306,48.974L117.306,48.974v-2.538h59.162v2.538
	H117.306z"/>
<path id="path299_4_" fill="#FFD42A" stroke="#000000" stroke-width="0.5" d="M265.639,63.884
	c-4.659,13.134-7.713,23.667-7.989,31.62c-5.314-0.102-9.524,1.153-13.866,2.102l-5.653-2.916c-3.086-1.547-6.169-3.093-9.255-4.639
	c-0.684-2.033-2.019-4.583,0.716-6.052c-1.55-1.765-1.777-3.892-0.153-6.24c-0.977-3.573-0.534-5.346,2.535-6.443
	c-1.507-3.51,0.529-5.946,2.535-6.607l9.414-14.31C251.159,54.894,258.398,59.389,265.639,63.884z"/>
<path id="path305_4_" fill="#FFD42A" stroke="#000000" stroke-width="0.5" d="M287.994,26.595c-2.456-1.412-5.566-0.708-7.021,1.624
	c-1.452,2.33-0.715,5.423,1.636,7.002L287.994,26.595z"/>
<path id="path307_4_" fill="#FFD42A" stroke="#000000" stroke-width="0.5" d="M282.557,35.31c-3.321-1.805-7.452-0.829-9.399,2.295
	c-1.947,3.122-1.005,7.252,2.079,9.429L282.557,35.31L282.557,35.31z"/>
<path id="polygon309_4_" fill="#FFD42A" stroke="#000000" stroke-width="0.5" d="M272.849,34.979l-1.81,2.896l7.135,4.454
	l1.808-2.896l0,0L272.849,34.979z"/>
<path id="path319_4_" fill="#FFD42A" stroke="#000000" stroke-width="0.5" d="M275.334,46.877l-0.011-0.008
	c-9.356-5.823-22.357-5.947-32.653,3.213c-3.457,4.791-6.563,9.088-10.021,13.879c-2.925,2.162-3.421,5.377-2.721,7.842
	c-2.92,1.716-2.041,4.766-1.768,6.387c-1.211,1.465-1.542,3.483-0.344,5.672c-1.238,2.454-1.086,4.21-0.07,6.113
	c5.271,1.964,10.653,4.625,15.814,7.776l0.013,0.007L275.334,46.877L275.334,46.877L275.334,46.877z"/>
<path id="path325_4_" fill="none" stroke="#000000" stroke-width="0.5" d="M272.071,52.103c-2.008-2.437-2.433-3.519-1.558-6.659
	c-3.788,6.466-8.483,4.85-9.348-2.066c-1.446,7.167-6.089,8.255-9.652,1.734c1.486,5.56-0.773,7.602-5.407,7.137"/>
<path id="path335_4_" fill="none" stroke="#000000" stroke-width="0.5" d="M227.721,83.832c6.106,2.869,12.524,2.677,18.382,2.896
	 M228.069,78.131c6.611,2.572,14.771,3.305,21.837,3.407 M229.871,71.724c7.108,3.012,15.633,4.698,23.114,4.932 M239.017,95.11
	c5.325-5.67,10.078-12.179,14.202-18.725"/>
<path id="polygon357_4_" fill="#FFD42A" stroke="#000000" stroke-width="0.5" d="M239.678,50.506l-6.9,11.055l2.907,1.813
	l6.9-11.054l0,0L239.678,50.506z M250.965,57.552l-6.899,11.054l2.906,1.814l6.9-11.055l0,0L250.965,57.552z M262.253,64.599
	l-6.901,11.054l1.454,0.907l6.9-11.055l0,0L262.253,64.599z"/>
<path id="polygon365_4_" fill="#FFD42A" stroke="#000000" stroke-width="0.5" d="M231.979,60.467l-1.343,2.154l25.093,15.664
	l1.344-2.155l0,0L231.979,60.467z M235.835,54.291l-1.343,2.155l25.092,15.663l1.344-2.153l0,0L235.835,54.291z M239.689,48.115
	l-1.343,2.154l25.093,15.664l1.343-2.154l0,0L239.689,48.115z"/>
<path id="crown-flag_4_" fill="#FFFFFF" stroke="#000000" stroke-width="0.5" d="M236.805,23.676
	c1.096-2.897,1.966-4.638,0.381-7.343c-1.578-2.689-5.002-2.08-7.355-4.605c-1.214-1.301-1.953-2.859-3.388-3.923
	c-2.761-2.05-4.368-2.253-7.814-1.738c-0.642,2.29-1.281,4.58-1.921,6.871c1.488-0.024,2.394-0.114,3.71,0.56
	c1.629,0.835,2.263,2.844,3.894,3.668c2.008,1.015,4.393,1.067,6.538,1.759C233.892,19.902,234.848,21.221,236.805,23.676
	L236.805,23.676z"/>
<path id="polygon515_4_" fill="#FFD42A" stroke="#000000" stroke-width="0.5" d="M218.801,5.803l-3.366-0.852l-27.66,101.066
	l4.994,1.236L218.801,5.803L218.801,5.803z"/>
<path id="path521_4_" fill="#FFD42A" stroke="#000000" stroke-width="0.5" d="M217.685,0.25c-1.597,0.026-2.871,1.309-2.844,2.866
	c0.028,1.556,1.345,2.798,2.943,2.772c1.597-0.026,2.87-1.31,2.844-2.866C220.599,1.466,219.281,0.225,217.685,0.25z"/>
<path id="crown-sail_4_" fill="#FFFFFF" stroke="#000000" stroke-width="0.5" d="M192.811,49.489
	c-2.647,10.587-7.285,19.946-11.848,29.765c7.134-3.449,13.65-5.64,21.215-3.554c5.793,1.598,8.025,4.455,9.335,10.395
	c5.088-9.113,9.202-18.39,12.118-28.396c2.371-8.131,4.382-16.974,4.679-25.447c-10.075-2.585-18.67-6.03-34.46-8.328
	C196.87,31.646,194.771,41.647,192.811,49.489L192.811,49.489L192.811,49.489z"/>
<path id="path537_4_" fill="#FFD42A" stroke="#000000" stroke-width="0.5" d="M231.938,31.686l-37.65-9.501
	c-0.476-0.12-0.962,0.16-1.086,0.622l-0.534,2.015c-0.122,0.461,0.166,0.937,0.64,1.057l37.649,9.5
	c0.474,0.12,0.963-0.16,1.085-0.622l0.535-2.016C232.698,32.281,232.412,31.806,231.938,31.686L231.938,31.686z"/>
<path id="polygon571_4_" d="M195.957,26.454L195.957,26.454l-0.503-0.092l0.677-3.704l0.504,0.092L195.957,26.454z M197.753,26.979
	L197.753,26.979l-0.503-0.088l0.658-3.724l0.503,0.089L197.753,26.979z M200.237,27.608L200.237,27.608l-0.503-0.091l0.678-3.741
	l0.503,0.09L200.237,27.608z M202.457,28.165L202.457,28.165l-0.503-0.09l0.678-3.724l0.503,0.09L202.457,28.165z M223.297,33.349
	L223.297,33.349l-0.502-0.094l0.686-3.711l0.501,0.092L223.297,33.349z M225.162,33.896L225.162,33.896l-0.501-0.094l0.704-3.712
	l0.499,0.094L225.162,33.896z M227.224,34.404L227.224,34.404l-0.504-0.093l0.687-3.713l0.501,0.093L227.224,34.404z
	 M228.954,34.883L228.954,34.883l-0.502-0.09l0.668-3.713l0.503,0.09L228.954,34.883z M199.528,23.647L199.528,23.647l-0.267-0.438
	l14.201-8.713l0.266,0.438L199.528,23.647z M226.785,30.179L226.785,30.179l-0.422,0.289l-10.271-15.107l0.423-0.289L226.785,30.179
	z"/>
<path id="path573_4_" fill="none" stroke="#000000" stroke-width="0.5" d="M221.889,44.842c-3.673,9.874-9.009,17.365-16.047,24.103
	 M218.937,37.554c-6.035,11.007-12.88,18.767-22.848,25.359 M211.86,36.523c-1.771,4.824-4.663,8.209-8.511,11.142"/>
<path id="path299_1_" fill="#FFD42A" stroke="#000000" stroke-width="0.5" d="M28.106,63.884c4.659,13.134,7.712,23.667,7.989,31.62
	c5.314-0.102,9.525,1.153,13.866,2.102l5.654-2.916c3.084-1.547,6.168-3.093,9.253-4.639c0.684-2.033,2.02-4.583-0.716-6.052
	c1.552-1.765,1.778-3.892,0.154-6.24c0.977-3.573,0.536-5.346-2.534-6.443c1.506-3.51-0.531-5.946-2.536-6.607l-9.413-14.31
	C42.585,54.894,35.345,59.389,28.106,63.884z"/>
<path id="path305_1_" fill="#FFD42A" stroke="#000000" stroke-width="0.5" d="M5.75,26.595c2.457-1.412,5.567-0.708,7.02,1.624
	c1.454,2.33,0.715,5.423-1.635,7.002L5.75,26.595z"/>
<path id="path307_1_" fill="#FFD42A" stroke="#000000" stroke-width="0.5" d="M11.189,35.31c3.318-1.805,7.451-0.829,9.398,2.295
	c1.946,3.122,1.002,7.252-2.08,9.429L11.189,35.31L11.189,35.31z"/>
<path id="polygon309_1_" fill="#FFD42A" stroke="#000000" stroke-width="0.5" d="M20.895,34.979l1.809,2.896L15.57,42.33
	l-1.809-2.896l0,0L20.895,34.979z"/>
<path id="path319_1_" fill="#FFD42A" stroke="#000000" stroke-width="0.5" d="M18.409,46.877l0.011-0.008
	c9.356-5.823,22.358-5.947,32.653,3.213c3.458,4.791,6.564,9.088,10.021,13.879c2.925,2.162,3.421,5.377,2.721,7.842
	c2.92,1.716,2.042,4.766,1.768,6.387c1.212,1.465,1.542,3.483,0.344,5.672c1.238,2.454,1.084,4.21,0.07,6.113
	c-5.27,1.964-10.653,4.625-15.814,7.776l-0.012,0.007L18.409,46.877L18.409,46.877L18.409,46.877z"/>
<path id="path325_1_" fill="none" stroke="#000000" stroke-width="0.5" d="M21.672,52.103c2.007-2.437,2.433-3.519,1.558-6.659
	c3.789,6.466,8.483,4.85,9.349-2.066c1.445,7.167,6.088,8.255,9.653,1.734c-1.487,5.56,0.773,7.602,5.407,7.137"/>
<path id="path335_1_" fill="none" stroke="#000000" stroke-width="0.5" d="M66.025,83.832c-6.108,2.869-12.526,2.677-18.383,2.896
	 M65.675,78.131c-6.611,2.572-14.771,3.305-21.836,3.407 M63.872,71.724c-7.106,3.012-15.632,4.698-23.114,4.932 M54.729,95.11
	c-5.325-5.67-10.077-12.179-14.201-18.725"/>
<path id="polygon357_1_" fill="#FFD42A" stroke="#000000" stroke-width="0.5" d="M54.066,50.506l6.901,11.055l-2.907,1.813
	l-6.901-11.054l0,0L54.066,50.506z M42.778,57.552l6.901,11.054l-2.907,1.814l-6.9-11.055l0,0L42.778,57.552z M31.491,64.599
	l6.901,11.054L36.94,76.56l-6.9-11.055l0,0L31.491,64.599z"/>
<path id="polygon365_1_" fill="#FFD42A" stroke="#000000" stroke-width="0.5" d="M61.765,60.467l1.344,2.154L38.016,78.286
	l-1.344-2.155l0,0L61.765,60.467z M57.909,54.291l1.345,2.155L34.161,72.108l-1.345-2.153l0,0L57.909,54.291z M54.054,48.115
	l1.344,2.154L30.305,65.933l-1.344-2.154l0,0L54.054,48.115z"/>
<path id="crown-flag_1_" fill="#FFFFFF" stroke="#000000" stroke-width="0.5" d="M56.94,23.676
	c-1.098-2.897-1.966-4.638-0.381-7.343c1.578-2.689,5.002-2.08,7.355-4.605c1.214-1.301,1.953-2.859,3.387-3.923
	c2.762-2.05,4.37-2.253,7.815-1.738c0.641,2.29,1.281,4.58,1.921,6.871c-1.488-0.024-2.393-0.114-3.711,0.56
	c-1.627,0.835-2.263,2.844-3.893,3.668c-2.008,1.015-4.39,1.067-6.539,1.759C59.853,19.902,58.897,21.221,56.94,23.676L56.94,23.676
	z"/>
<path id="polygon515_1_" fill="#FFD42A" stroke="#000000" stroke-width="0.5" d="M74.943,5.803l3.368-0.852l27.659,101.066
	l-4.995,1.236L74.943,5.803L74.943,5.803z"/>
<path id="path521_1_" fill="#FFD42A" stroke="#000000" stroke-width="0.5" d="M76.06,0.25c1.597,0.026,2.87,1.309,2.843,2.866
	c-0.028,1.556-1.345,2.798-2.942,2.772c-1.597-0.026-2.87-1.31-2.843-2.866C73.145,1.466,74.463,0.225,76.06,0.25z"/>
<path id="crown-sail_1_" fill="#FFFFFF" stroke="#000000" stroke-width="0.5" d="M100.934,49.489
	c2.647,10.587,7.287,19.946,11.846,29.765c-7.133-3.449-13.65-5.64-21.212-3.554c-5.793,1.598-8.025,4.455-9.336,10.395
	c-5.086-9.113-9.201-18.39-12.119-28.396c-2.37-8.131-4.38-16.974-4.677-25.447c10.074-2.585,18.67-6.03,34.459-8.328
	C96.874,31.646,98.974,41.647,100.934,49.489L100.934,49.489L100.934,49.489z"/>
<path id="path537_1_" fill="#FFD42A" stroke="#000000" stroke-width="0.5" d="M61.807,31.686l37.65-9.501
	c0.474-0.12,0.961,0.16,1.084,0.622l0.534,2.015c0.124,0.461-0.164,0.937-0.638,1.057l-37.651,9.5
	c-0.474,0.12-0.962-0.16-1.083-0.622l-0.536-2.016C61.045,32.281,61.333,31.806,61.807,31.686L61.807,31.686z"/>
<path id="polygon571_1_" d="M97.787,26.454L97.787,26.454l0.502-0.092l-0.678-3.704l-0.502,0.092L97.787,26.454z M95.992,26.979
	L95.992,26.979l0.503-0.088l-0.659-3.724l-0.503,0.089L95.992,26.979z M93.508,27.608L93.508,27.608l0.502-0.091l-0.678-3.741
	l-0.501,0.09L93.508,27.608z M91.287,28.165L91.287,28.165l0.502-0.09l-0.677-3.724l-0.501,0.09L91.287,28.165z M70.448,33.349
	L70.448,33.349l0.502-0.094l-0.686-3.711l-0.502,0.092L70.448,33.349z M68.583,33.896L68.583,33.896l0.5-0.094l-0.702-3.712
	l-0.5,0.094L68.583,33.896z M66.522,34.404L66.522,34.404l0.502-0.093l-0.686-3.713l-0.502,0.093L66.522,34.404z M64.79,34.883
	L64.79,34.883l0.502-0.09l-0.669-3.713l-0.501,0.09L64.79,34.883z M94.215,23.647L94.215,23.647l0.267-0.438l-14.2-8.713
	l-0.266,0.438L94.215,23.647z M66.958,30.179L66.958,30.179l0.422,0.289l10.271-15.107l-0.422-0.289L66.958,30.179z"/>
<path id="path573_1_" fill="none" stroke="#000000" stroke-width="0.5" d="M71.855,44.842c3.673,9.874,9.009,17.365,16.047,24.103
	 M74.807,37.554c6.035,11.007,12.881,18.767,22.849,25.359 M81.883,36.523c1.773,4.824,4.663,8.209,8.51,11.142"/>
<path id="path16029_2_" fill="#FFD42A" stroke="#000000" stroke-width="0.5" d="M56.991,123.519
	c1.859-0.883-2.518-7.502-3.114-13.865c-0.783-8.34-6.983-9.147-6.983-9.147c24.738-7.308,61.505-12.462,99.832-12.512
	c38.34,0.05,75.297,5.036,100.039,12.344c0,0-7.285,3.223-7.687,10.971c-0.491,5.958-4.19,11.326-2.329,12.209H56.991
	L56.991,123.519z"/>
<path id="path16031_2_" fill="#FFD42A" stroke="#000000" stroke-width="0.5" d="M146.79,92.921
	c-38.328,0.061-72.764,2.64-97.5,9.958c-1.649,0.495-3.394-0.151-3.929-1.711c-0.535-1.563,0.354-3.356,2.003-3.862
	c24.844-7.62,60.168-11.414,99.435-11.495c39.275,0.073,74.734,3.875,99.582,11.495c1.649,0.507,2.537,2.299,2.002,3.862
	c-0.537,1.56-2.281,2.207-3.929,1.711C219.716,95.561,185.132,92.981,146.79,92.921L146.79,92.921z"/>
<path id="path16075_2_" fill="#FFD42A" stroke="#000000" stroke-width="0.5" d="M57.378,126.164
	c-1.652-0.497-2.517-1.998-2.42-3.548c-0.029-1.508,0.824-2.875,2.42-3.353h179.004c1.597,0.476,2.435,1.844,2.405,3.353
	c0.087,1.55-0.764,3.051-2.405,3.548H57.378L57.378,126.164z"/>
<path id="path16079_2_" fill="#17C920" stroke="#000000" stroke-width="0.5" d="M146.857,114.017
	c-8.187,0-14.792-3.085-14.792-6.886c0-3.8,6.605-6.898,14.792-6.898c8.194,0,14.823,3.083,14.823,6.898
	C161.679,110.931,155.052,114.017,146.857,114.017"/>
<path id="path16081_2_" fill="#17C920" stroke="#000000" stroke-width="0.25" stroke-linecap="round" stroke-linejoin="round" d="
	M146.531,111.982c-6.081,0-10.987-2.117-10.987-4.724c0-2.608,4.907-4.734,10.987-4.734c6.086,0,11.009,2.117,11.009,4.734
	C157.54,109.865,152.617,111.982,146.531,111.982"/>
<path id="path16085_4_" fill="#17C920" stroke="#000000" stroke-width="0.426" stroke-linecap="round" stroke-linejoin="round" d="
	M51.997,106.986c0.53-0.152,0.989-0.354,1.548-0.475c5.942-1.294,11.189-0.267,11.744,2.282c0.554,2.549-3.783,5.674-9.725,6.968
	c-0.358,0.079-0.679,0.067-1.032,0.129c-0.439-0.381-0.903-0.71-1.289-1.148c-0.357-0.405-0.686-0.841-0.951-1.29
	c-0.265-0.448-0.464-0.926-0.595-1.411c-0.133-0.491-0.203-1.013-0.22-1.548c-0.018-0.536,0.008-1.087,0.078-1.638
	C51.638,108.206,51.836,107.609,51.997,106.986L51.997,106.986z"/>
<polygon id="rect16103_4_" fill="#D71414" stroke="#000000" stroke-width="0.5" points="98.27,98.452 114.591,106.424 
	98.828,115.688 82.507,107.715 "/>
<polygon id="rect16105_4_" fill="#D40000" stroke="#000000" stroke-width="0.426" stroke-linecap="round" stroke-linejoin="round" points="
	98.374,101.455 109.093,106.644 98.738,112.682 88.018,107.492 "/>
<path id="path16085_1_" fill="#17C920" stroke="#000000" stroke-width="0.426" stroke-linecap="round" stroke-linejoin="round" d="
	M241.747,106.986c-0.53-0.152-0.988-0.354-1.548-0.475c-5.942-1.294-11.189-0.267-11.744,2.282
	c-0.554,2.548,3.783,5.674,9.726,6.968c0.358,0.079,0.68,0.067,1.031,0.129c0.439-0.381,0.903-0.71,1.29-1.148
	c0.355-0.405,0.683-0.841,0.949-1.29c0.267-0.448,0.464-0.926,0.596-1.411c0.133-0.491,0.202-1.013,0.22-1.548
	s-0.008-1.087-0.077-1.638C242.106,108.206,241.907,107.609,241.747,106.986L241.747,106.986z"/>
<polygon id="rect16103_1_" fill="#D71414" stroke="#000000" stroke-width="0.5" points="195.475,98.452 179.153,106.424 
	194.916,115.688 211.237,107.715 "/>
<polygon id="rect16105_1_" fill="#D40000" stroke="#000000" stroke-width="0.426" stroke-linecap="round" stroke-linejoin="round" points="
	195.371,101.455 184.651,106.644 195.008,112.682 205.728,107.492 "/>
<ellipse fill="#D71414" stroke="#000000" stroke-width="0.5" cx="79.379" cy="103.606" rx="1.742" ry="2.151"/>
<ellipse fill="#D71414" stroke="#000000" stroke-width="0.5" cx="80.37" cy="113.027" rx="1.742" ry="2.151"/>
<ellipse fill="#D71414" stroke="#000000" stroke-width="0.5" cx="114.591" cy="100.232" rx="1.742" ry="2.151"/>
<ellipse fill="#D71414" stroke="#000000" stroke-width="0.5" cx="115.199" cy="112.036" rx="1.743" ry="2.151"/>
<ellipse fill="#D71414" stroke="#000000" stroke-width="0.5" cx="177.583" cy="100.232" rx="1.743" ry="2.151"/>
<ellipse fill="#D71414" stroke="#000000" stroke-width="0.5" cx="177.583" cy="112.682" rx="1.743" ry="2.151"/>
<ellipse fill="#D71414" stroke="#000000" stroke-width="0.5" cx="211.238" cy="101.454" rx="1.742" ry="2.151"/>
<ellipse fill="#D71414" stroke="#000000" stroke-width="0.5" cx="211.238" cy="114.016" rx="1.742" ry="2.151"/>
<g>
	<defs>
		<path id="SVGID_1_" d="M262.57,333.055V127.416H30.354v205.63c0.115,1.962,0.031,4.057,0.764,6.286
			c0,23.639,51.08,58.37,115.346,58.37c64.266,0,115.343-34.731,115.343-58.37C261.806,337.196,263.39,335.105,262.57,333.055"/>
	</defs>
	<clipPath id="SVGID_2_">
		<use xlink:href="#SVGID_1_"  overflow="visible"/>
	</clipPath>
	<path clip-path="url(#SVGID_2_)" fill="#003D8F" stroke="#000000" stroke-width="1.3" d="M262.875,333.08V127.441H30.659v205.631
		c0.115,1.961,0.031,4.057,0.764,6.285c0,23.639,51.08,58.371,115.346,58.371c64.266,0,115.343-34.732,115.343-58.371
		C262.11,337.22,263.694,335.13,262.875,333.08"/>
	<g id="coa_turcianske_teplice_1_" clip-path="url(#SVGID_2_)">
		<path id="bar_11_" fill="#FFFFFF" d="M0.035,148.93c18.699,0,18.699-11.259,37.399-11.259s18.7,11.259,37.4,11.259
			s18.7-11.259,37.399-11.259c18.7,0,18.7,11.259,37.4,11.259s18.7-11.259,37.4-11.259c18.699,0,18.699,11.259,37.399,11.259
			s18.7-11.259,37.4-11.259s18.7,11.259,37.399,11.259v-22.516c-18.699,0-18.699-11.258-37.399-11.258s-18.7,11.258-37.4,11.258
			s-18.7-11.258-37.399-11.258c-18.7,0-18.7,11.258-37.4,11.258s-18.7-11.258-37.4-11.258c-18.699,0-18.699,11.258-37.399,11.258
			s-18.7-11.258-37.4-11.258s-18.7,11.258-37.399,11.258V148.93z"/>
		<g>
			<path id="bar_10_" fill="#FFFFFF" d="M0.035,195.398c18.699,0,18.699-11.258,37.399-11.258s18.7,11.258,37.4,11.258
				s18.7-11.258,37.399-11.258c18.7,0,18.7,11.258,37.4,11.258s18.7-11.258,37.4-11.258c18.699,0,18.699,11.258,37.399,11.258
				s18.7-11.258,37.4-11.258s18.7,11.258,37.399,11.258v-22.516c-18.699,0-18.699-11.258-37.399-11.258s-18.7,11.258-37.4,11.258
				s-18.7-11.258-37.399-11.258c-18.7,0-18.7,11.258-37.4,11.258s-18.7-11.258-37.4-11.258c-18.699,0-18.699,11.258-37.399,11.258
				s-18.7-11.258-37.4-11.258s-18.7,11.258-37.399,11.258V195.398z"/>
		</g>
		<g>
			<path id="bar_9_" fill="#FFFFFF" d="M0.035,240.551c18.699,0,18.699-11.257,37.399-11.257s18.7,11.257,37.4,11.257
				s18.7-11.257,37.399-11.257c18.7,0,18.7,11.257,37.4,11.257s18.7-11.257,37.4-11.257c18.699,0,18.699,11.257,37.399,11.257
				s18.7-11.257,37.4-11.257s18.7,11.257,37.399,11.257v-22.515c-18.699,0-18.699-11.257-37.399-11.257s-18.7,11.257-37.4,11.257
				s-18.7-11.257-37.399-11.257c-18.7,0-18.7,11.257-37.4,11.257s-18.7-11.257-37.4-11.257c-18.699,0-18.699,11.257-37.399,11.257
				s-18.7-11.257-37.4-11.257s-18.7,11.257-37.399,11.257V240.551z"/>
		</g>
	</g>
	<path id="bar_8_" clip-path="url(#SVGID_2_)" fill="#FFFFFF" d="M0,286.388c18.701,0,18.701-11.257,37.4-11.257
		c18.7,0,18.7,11.257,37.4,11.257c18.699,0,18.699-11.257,37.4-11.257c18.699,0,18.699,11.257,37.399,11.257
		s18.7-11.257,37.4-11.257c18.699,0,18.699,11.257,37.399,11.257s18.7-11.257,37.4-11.257s18.7,11.257,37.399,11.257v-22.514
		c-18.699,0-18.699-11.26-37.399-11.26s-18.7,11.26-37.4,11.26s-18.7-11.26-37.399-11.26c-18.7,0-18.7,11.26-37.4,11.26
		s-18.7-11.26-37.399-11.26c-18.701,0-18.701,11.26-37.4,11.26c-18.7,0-18.7-11.26-37.4-11.26c-18.699,0-18.699,11.26-37.4,11.26
		V286.388z"/>
	<g clip-path="url(#SVGID_2_)">
		<path id="bar_7_" fill="#FFFFFF" d="M0,333.197c18.701,0,18.701-11.259,37.4-11.259c18.7,0,18.7,11.259,37.4,11.259
			c18.699,0,18.699-11.259,37.4-11.259c18.699,0,18.699,11.259,37.399,11.259s18.7-11.259,37.4-11.259
			c18.699,0,18.699,11.259,37.399,11.259s18.7-11.259,37.4-11.259s18.7,11.259,37.399,11.259V310.68
			c-18.699,0-18.699-11.257-37.399-11.257s-18.7,11.257-37.4,11.257s-18.7-11.257-37.399-11.257c-18.7,0-18.7,11.257-37.4,11.257
			s-18.7-11.257-37.399-11.257c-18.701,0-18.701,11.257-37.4,11.257c-18.7,0-18.7-11.257-37.4-11.257
			c-18.699,0-18.699,11.257-37.4,11.257V333.197z"/>
	</g>
	<g clip-path="url(#SVGID_2_)">
		<path id="bar_6_" fill="#FFFFFF" d="M0,379.223c18.701,0,18.701-11.257,37.4-11.257c18.7,0,18.7,11.257,37.4,11.257
			c18.699,0,18.699-11.257,37.4-11.257c18.699,0,18.699,11.257,37.399,11.257s18.7-11.257,37.4-11.257
			c18.699,0,18.699,11.257,37.399,11.257s18.7-11.257,37.4-11.257s18.7,11.257,37.399,11.257v-22.516
			c-18.699,0-18.699-11.258-37.399-11.258s-18.7,11.258-37.4,11.258s-18.7-11.258-37.399-11.258c-18.7,0-18.7,11.258-37.4,11.258
			s-18.7-11.258-37.399-11.258c-18.701,0-18.701,11.258-37.4,11.258c-18.7,0-18.7-11.258-37.4-11.258
			c-18.699,0-18.699,11.258-37.4,11.258V379.223z"/>
	</g>
</g>
<path fill="none" stroke="#000000" stroke-width="2" d="M262.57,333.055V127.416H30.354v205.63c0.115,1.962,0.031,4.057,0.764,6.286
	c0,23.639,51.08,58.37,115.346,58.37c64.266,0,115.343-34.731,115.343-58.37C261.806,337.196,263.39,335.105,262.57,333.055"/>
<rect x="80.716" y="186.076" transform="matrix(0.7071 -0.7071 0.7071 0.7071 -136.4321 180.3733)" fill="#225E28" width="137.599" height="137.6"/>
<polygon fill="#FFD42A" stroke="#000000" stroke-width="0.75" points="136.976,205.511 119.239,205.511 119.239,204.499 
	119.239,205.522 119.239,199.807 121.454,199.807 121.429,202.052 122.822,202.052 122.712,202.052 123.271,202.052 
	123.258,199.807 125.43,199.807 125.208,199.807 125.487,199.807 125.473,202.052 127.089,202.052 127.149,199.716 128.978,199.716 
	129.004,202.048 131.181,202.145 131.108,199.807 131.388,199.807 131.279,199.807 131.558,199.807 131.45,199.807 132.957,199.807 
	132.944,202.052 133.502,202.052 133.252,202.052 134.785,202.052 134.757,199.807 136.976,199.807 136.976,205.522 
	136.976,204.499 136.976,205.511 136.976,205.511 "/>
<polygon fill="#FFD42A" stroke="#000000" stroke-width="0.75" points="135.779,224.397 134.382,224.397 132.991,224.397 
	129.363,224.397 127.967,224.397 126.574,224.397 123.786,224.397 122.256,224.397 120.998,224.397 120.998,222.583 
	120.998,222.739 121.901,205.469 123.42,205.469 124.943,205.469 126.465,205.469 127.985,205.469 129.507,205.469 131.029,205.469 
	132.549,205.469 134.072,205.469 135.779,222.739 135.779,222.583 "/>
<rect x="124.513" y="208.426" fill="#E52020" stroke="#000000" width="2.333" height="4.443"/>
<rect x="129.369" y="208.426" fill="#E52020" stroke="#000000" width="2.333" height="4.443"/>
<polygon fill="#FFD42A" stroke="#000000" stroke-width="0.75" points="177.975,205.511 160.238,205.511 160.238,204.499 
	160.238,205.522 160.238,199.807 162.453,199.807 162.429,202.052 163.822,202.052 163.712,202.052 164.27,202.052 164.258,199.807 
	166.43,199.807 166.208,199.807 166.487,199.807 166.473,202.052 168.089,202.052 168.148,199.716 169.977,199.716 170.004,202.048 
	172.18,202.145 172.108,199.807 172.389,199.807 172.278,199.807 172.558,199.807 172.449,199.807 173.958,199.807 173.943,202.052 
	174.502,202.052 174.252,202.052 175.785,202.052 175.757,199.807 177.975,199.807 177.975,205.522 177.975,204.499 
	177.975,205.511 177.975,205.511 "/>
<polygon fill="#FFD42A" stroke="#000000" stroke-width="0.75" points="176.779,224.397 175.383,224.397 173.991,224.397 
	170.362,224.397 168.967,224.397 167.574,224.397 164.786,224.397 163.256,224.397 161.998,224.397 161.998,222.583 
	161.998,222.739 162.901,205.469 164.42,205.469 165.943,205.469 167.466,205.469 168.984,205.469 170.507,205.469 172.03,205.469 
	173.549,205.469 175.071,205.469 176.779,222.739 176.779,222.583 "/>
<rect x="165.514" y="208.426" fill="#E52020" stroke="#000000" width="2.332" height="4.442"/>
<rect x="170.535" y="208.426" fill="#E52020" stroke="#000000" width="2.333" height="4.442"/>
<polygon fill="#FFD42A" stroke="#000000" stroke-width="0.75" points="156.748,221.563 155.352,221.563 153.96,221.563 
	150.332,221.563 148.936,221.563 147.544,221.563 144.755,221.563 143.225,221.563 141.967,221.563 141.967,218.841 
	141.967,219.075 142.87,193.17 144.39,193.17 145.912,193.17 147.435,193.17 148.953,193.17 150.477,193.17 151.999,193.17 
	153.518,193.17 155.04,193.17 156.748,219.075 156.748,218.841 "/>
<rect x="145.271" y="199.106" fill="#E52020" stroke="#000000" width="2.332" height="6.664"/>
<rect x="150.293" y="199.106" fill="#E52020" stroke="#000000" width="2.334" height="6.664"/>
<polygon fill="#FFD42A" stroke="#000000" stroke-width="0.75" points="157.644,193.29 140.085,193.29 140.085,191.788 
	140.085,193.308 140.085,186.62 142.278,186.62 142.253,189.954 143.634,189.954 143.524,189.954 144.078,189.954 144.063,186.62 
	146.215,186.62 145.996,186.62 146.272,186.62 146.256,189.954 147.857,189.954 147.917,186.483 149.726,186.483 149.754,189.948 
	151.909,190.091 151.836,186.62 152.113,186.62 152.006,186.62 152.281,186.62 152.173,186.62 153.667,186.62 153.654,189.954 
	154.207,189.954 153.959,189.954 155.477,189.954 155.449,186.62 157.644,186.62 157.644,193.308 157.644,191.788 157.644,193.29 
	157.644,193.29 "/>
<polygon fill="#FFD42A" stroke="#000000" points="179.232,229.28 119.483,229.28 119.483,226.123 119.483,228.75 119.483,214.081 
	126.86,214.081 126.86,219.841 131.555,219.841 131.185,219.841 133.064,219.841 133.022,214.081 140.337,214.081 139.591,214.081 
	140.531,214.081 140.483,219.841 145.928,219.841 146.129,213.845 152.287,213.845 152.381,219.831 158.469,219.831 
	158.469,214.081 160.41,214.081 160.043,214.081 160.982,214.081 160.619,214.081 165.695,214.081 165.695,219.841 171.76,219.841 
	171.76,214.081 179.232,214.081 179.232,228.75 179.232,226.123 179.232,228.72 179.232,228.72 "/>
<polygon fill="#FFD42A" stroke="#000000" stroke-width="0.75" points="179.372,303.018 173.727,303.018 168.104,303.018 
	153.437,303.018 147.793,303.018 142.163,303.018 130.891,303.018 124.708,303.018 119.62,303.018 119.62,296.032 119.62,296.633 
	127.454,229.314 132.57,229.314 137.699,229.314 142.831,229.314 147.945,229.314 153.076,229.314 158.204,229.314 163.324,229.314 
	168.451,229.314 179.372,296.633 179.372,296.032 "/>
<rect x="116.805" y="303.018" fill="#FFD42A" stroke="#000000" stroke-width="0.75" width="65.383" height="14.854"/>
<polygon fill="none" stroke="#000000" points="170.249,241.887 126.449,241.887 127.349,235.046 168.849,235.046 "/>
<polygon fill="none" stroke="#000000" points="170.948,248.587 125.749,248.587 126.449,241.746 170.249,241.746 "/>
<polygon fill="none" stroke="#000000" points="172.157,255.429 124.857,255.429 125.557,248.587 170.948,248.587 "/>
<polygon fill="none" stroke="#000000" points="173.558,262.27 124.157,262.27 124.857,255.429 172.157,255.429 "/>
<polyline fill="none" stroke="#000000" points="173.376,262.326 174.448,268.646 122.907,268.756 123.607,261.915 "/>
<polygon fill="none" stroke="#000000" points="175.849,275.488 121.949,275.488 122.648,268.646 174.448,268.646 "/>
<polygon fill="none" stroke="#000000" points="177.357,282.187 121.249,282.187 121.949,275.346 175.849,275.346 "/>
<polygon fill="none" stroke="#000000" points="178.143,289.057 120.357,289.029 121.249,282.187 177.357,282.187 "/>
<polygon fill="none" stroke="#000000" points="179.457,296.57 119.62,296.633 120.357,289.029 178.143,289.057 "/>
<line fill="none" x1="150.293" y1="229.188" x2="149.835" y2="235.157"/>
<line fill="none" stroke="#000000" x1="146.438" y1="229.188" x2="146.438" y2="235.046"/>
<line fill="none" stroke="#000000" x1="146.438" y1="241.887" x2="146.438" y2="248.587"/>
<line fill="none" stroke="#000000" x1="146.438" y1="255.429" x2="146.438" y2="261.915"/>
<line fill="none" stroke="#000000" x1="146.438" y1="268.756" x2="146.438" y2="275.346"/>
<line fill="none" stroke="#000000" x1="160.438" y1="229.188" x2="160.438" y2="235.046"/>
<line fill="none" stroke="#000000" x1="160.438" y1="241.887" x2="160.438" y2="248.587"/>
<line fill="none" stroke="#000000" x1="160.438" y1="255.429" x2="160.438" y2="261.915"/>
<line fill="none" stroke="#000000" x1="160.438" y1="268.756" x2="160.438" y2="275.346"/>
<line fill="none" stroke="#000000" x1="133.138" y1="229.188" x2="133.138" y2="235.046"/>
<line fill="none" stroke="#000000" x1="133.138" y1="241.887" x2="133.138" y2="248.587"/>
<line fill="none" stroke="#000000" x1="133.138" y1="255.429" x2="133.138" y2="261.915"/>
<line fill="none" stroke="#000000" x1="133.138" y1="268.756" x2="133.138" y2="275.346"/>
<line fill="none" stroke="#000000" x1="171.638" y1="275.729" x2="171.638" y2="282.214"/>
<line fill="none" stroke="#000000" x1="171.638" y1="289.057" x2="171.638" y2="296.579"/>
<line fill="none" stroke="#000000" x1="140.138" y1="275.729" x2="140.138" y2="282.214"/>
<line fill="none" stroke="#000000" x1="140.138" y1="289.057" x2="140.138" y2="296.612"/>
<line fill="none" stroke="#000000" x1="124.038" y1="289.057" x2="123.907" y2="296.629"/>
<line fill="none" stroke="#000000" x1="156.938" y1="248.457" x2="156.938" y2="255.046"/>
<line fill="none" stroke="#000000" x1="143.638" y1="248.457" x2="143.638" y2="255.046"/>
<line fill="none" stroke="#000000" x1="142.938" y1="235.157" x2="142.938" y2="241.746"/>
<line fill="none" stroke="#000000" x1="156.938" y1="235.157" x2="156.938" y2="241.746"/>
<line fill="none" stroke="#000000" x1="129.638" y1="235.157" x2="129.638" y2="241.746"/>
<path fill="#E52020" stroke="#000000" d="M131.943,255.292c2.892,0,5.783,0,8.675,0c0.088-1.839,0.221-3.681,0.207-5.522
	c-0.022-2.791-0.049-8.188-4.149-8.045C129.738,241.967,131.941,250.727,131.943,255.292"/>
<path fill="#E52020" stroke="#000000" d="M156.863,255.292c2.892,0,5.783,0,8.675,0c0.087-1.839,0.222-3.681,0.207-5.522
	c-0.022-2.791-0.05-8.187-4.149-8.044C154.657,241.967,156.862,250.727,156.863,255.292"/>
<path fill="#E52020" stroke="#000000" d="M145.094,296.633c3.855,0,7.711,0,11.566,0c0.117-2.45,0.296-4.906,0.275-7.363
	c-0.029-3.722-0.065-10.916-5.531-10.726C142.154,278.867,145.092,290.546,145.094,296.633"/>
</svg>
